<svg width="833" height="761" viewBox="0 0 833 761" fill="none" xmlns="http://www.w3.org/2000/svg">
<mask id="mask0_308_42" style="mask-type:alpha" maskUnits="userSpaceOnUse" x="0" y="0" width="672" height="672">
<circle cx="336" cy="336" r="336" fill="#D9D9D9"/>
</mask>
<g mask="url(#mask0_308_42)">
<line x1="631" y1="219.5" x2="833" y2="219.5" stroke="#999999"/>
<line x1="631" y1="132.5" x2="833" y2="132.5" stroke="#999999"/>
<line x1="630.5" y1="219" x2="630.5" y2="132" stroke="#999999"/>
<line y1="-0.5" x2="202" y2="-0.5" transform="matrix(-1 0 0 1 827 587)" stroke="#999999"/>
<line y1="-0.5" x2="86" y2="-0.5" transform="matrix(4.37114e-08 -1 -1 -4.37114e-08 625 673)" stroke="#999999"/>
<line y1="-0.5" x2="202" y2="-0.5" transform="matrix(-1 0 0 1 827 587)" stroke="#999999"/>
<line y1="-0.5" x2="202" y2="-0.5" transform="matrix(-1 0 0 1 827 500)" stroke="#999999"/>
<line y1="-0.5" x2="202" y2="-0.5" transform="matrix(-1 0 0 1 827 412)" stroke="#999999"/>
<line y1="-0.5" x2="202" y2="-0.5" transform="matrix(-1 0 0 1 625 587)" stroke="#999999"/>
<line y1="-0.5" x2="202" y2="-0.5" transform="matrix(-1 0 0 1 625 500)" stroke="#999999"/>
<line y1="-0.5" x2="86" y2="-0.5" transform="matrix(4.37114e-08 -1 -1 -4.37114e-08 423 586)" stroke="#999999"/>
<line y1="-0.5" x2="87" y2="-0.5" transform="matrix(4.37114e-08 -1 -1 -4.37114e-08 625 586)" stroke="#999999"/>
<line y1="-0.5" x2="87" y2="-0.5" transform="matrix(4.37114e-08 -1 -1 -4.37114e-08 625 499)" stroke="#999999"/>
<line y1="-0.5" x2="202" y2="-0.5" transform="matrix(-1 0 0 1 423 500)" stroke="#999999"/>
<line y1="-0.5" x2="202" y2="-0.5" transform="matrix(-1 0 0 1 423 587)" stroke="#999999"/>
<line y1="-0.5" x2="86" y2="-0.5" transform="matrix(4.37114e-08 -1 -1 -4.37114e-08 221 673)" stroke="#999999"/>
<line y1="-0.5" x2="87" y2="-0.5" transform="matrix(4.37114e-08 -1 -1 -4.37114e-08 423 673)" stroke="#999999"/>
<line y1="-0.5" x2="202" y2="-0.5" transform="matrix(-1 0 0 1 625 412)" stroke="#999999"/>
<line y1="-0.5" x2="202" y2="-0.5" transform="matrix(-1 0 0 1 625 325)" stroke="#999999"/>
<line y1="-0.5" x2="86" y2="-0.5" transform="matrix(4.37114e-08 -1 -1 -4.37114e-08 423 411)" stroke="#999999"/>
<line y1="-0.5" x2="87" y2="-0.5" transform="matrix(4.37114e-08 -1 -1 -4.37114e-08 625 411)" stroke="#999999"/>
</g>
</svg>
