<svg width="786" height="679" viewBox="0 0 786 679" fill="none" xmlns="http://www.w3.org/2000/svg">
<mask id="mask0_308_2" style="mask-type:alpha" maskUnits="userSpaceOnUse" x="156" y="0" width="630" height="630">
<circle opacity="0.85" cx="471" cy="315" r="315" fill="#D9D9D9"/>
</mask>
<g mask="url(#mask0_308_2)">
<line x1="1" y1="591.5" x2="203" y2="591.5" stroke="#676767"/>
<line x1="1" y1="504.5" x2="203" y2="504.5" stroke="#676767"/>
<line x1="202.5" y1="591" x2="202.5" y2="505" stroke="#676767"/>
<line x1="1" y1="504.5" x2="203" y2="504.5" stroke="#676767"/>
<line x1="1" y1="417.5" x2="203" y2="417.5" stroke="#676767"/>
<line x1="1" y1="329.5" x2="203" y2="329.5" stroke="#676767"/>
<line x1="203" y1="504.5" x2="405" y2="504.5" stroke="#676767"/>
<line x1="203" y1="417.5" x2="405" y2="417.5" stroke="#676767"/>
<line x1="404.5" y1="504" x2="404.5" y2="418" stroke="#676767"/>
<line x1="202.5" y1="504" x2="202.5" y2="417" stroke="#676767"/>
<line x1="202.5" y1="417" x2="202.5" y2="330" stroke="#676767"/>
<line x1="405" y1="417.5" x2="607" y2="417.5" stroke="#676767"/>
<line x1="203" y1="591.5" x2="405" y2="591.5" stroke="#676767"/>
<line x1="404.5" y1="678" x2="404.5" y2="592" stroke="#676767"/>
<line x1="202.5" y1="678" x2="202.5" y2="591" stroke="#676767"/>
<line x1="405" y1="591.5" x2="607" y2="591.5" stroke="#676767"/>
<line x1="405" y1="504.5" x2="607" y2="504.5" stroke="#676767"/>
<line x1="606.5" y1="591" x2="606.5" y2="505" stroke="#676767"/>
<line x1="404.5" y1="591" x2="404.5" y2="504" stroke="#676767"/>
<line x1="203" y1="329.5" x2="405" y2="329.5" stroke="#676767"/>
<line x1="203" y1="242.5" x2="405" y2="242.5" stroke="#676767"/>
<line x1="404.5" y1="329" x2="404.5" y2="243" stroke="#676767"/>
<line x1="202.5" y1="329" x2="202.5" y2="242" stroke="#676767"/>
<line x1="1" y1="242.5" x2="203" y2="242.5" stroke="#676767"/>
<line x1="1" y1="155.5" x2="203" y2="155.5" stroke="#676767"/>
<line x1="202.5" y1="242" x2="202.5" y2="156" stroke="#676767"/>
</g>
</svg>
