<svg xmlns="http://www.w3.org/2000/svg" width="185" height="185" fill="none"><g fill="#832EFF" style="mix-blend-mode:plus-lighter"><path d="M140.186 71.807a50 50 0 1 1-71.861 25.266l2.442.938a47.383 47.383 0 1 0 68.101-23.944z" opacity=".071"/><path d="M138.854 69.166a50 50 0 1 1-73.79 18.907l2.352 1.147a47.382 47.382 0 0 0 54.344 66.68 47.39 47.39 0 0 0 34.839-37.317 47.38 47.38 0 0 0-19.255-47.282z" opacity=".143"/><path d="M137.303 66.836a50 50 0 0 1 15.893 51.473 50 50 0 0 1-40.054 36.024A50 50 0 0 1 62.147 79.24l2.242 1.348a47.384 47.384 0 1 0 71.224-11.755z" opacity=".214"/><path d="M135.507 64.797a49.998 49.998 0 1 1-79.162 59.581 50 50 0 0 1 3.21-53.775l2.116 1.538a47.383 47.383 0 0 0 66.823 65.718 47.38 47.38 0 0 0 17.827-47.839 47.4 47.4 0 0 0-12.672-23.381z" opacity=".286"/><path d="M133.44 63.025a49.998 49.998 0 0 1-65.836 73.802A50.002 50.002 0 0 1 57.271 62.19l1.974 1.716a47.384 47.384 0 1 0 72.184.792z" opacity=".357"/><path d="M131.08 61.497a49.99 49.99 0 0 1 2.029 53.833 50.002 50.002 0 0 1-74.046 13.95A50 50 0 0 1 41.364 78.4a50 50 0 0 1 13.91-24.374l1.817 1.882a47.383 47.383 0 1 0 71.84 7.08z" opacity=".429"/><path d="M128.408 60.186a50 50 0 1 1-74.866-14.05l1.646 2.034a47.384 47.384 0 1 0 70.949 13.314z" opacity=".5"/><path d="M125.406 59.064a50 50 0 0 1-7.35 53.367 50 50 0 1 1-66.007-73.888l1.462 2.169a47.383 47.383 0 1 0 69.519 19.447z" opacity=".571"/><path d="M122.058 58.1a50.001 50.001 0 1 1-96.925 20.544 50 50 0 0 1 25.635-47.38l1.268 2.289a47.385 47.385 0 1 0 67.559 25.432z" opacity=".643"/><path d="M118.351 57.267a50 50 0 1 1-68.679-32.948l1.064 2.39a47.384 47.384 0 1 0 65.085 31.224z" opacity=".714"/><path d="M114.277 56.53a50 50 0 1 1-65.546-38.81l.851 2.474A47.384 47.384 0 1 0 111.7 56.972z" opacity=".786"/><path d="M109.828 55.856a50 50 0 0 1-25.16 47.635 50 50 0 1 1-36.755-92.008l.633 2.538a47.384 47.384 0 1 0 58.675 42.052z" opacity=".857"/><path d="M105 55.215a49.998 49.998 0 0 1-56.987 49.294 49.998 49.998 0 0 1-.825-98.895l.409 2.584a47.384 47.384 0 1 0 54.786 47.006z" opacity=".929"/><path d="M99.79 54.572a50.001 50.001 0 0 1-85.53 30.393A50 50 0 0 1 46.522.121l.182 2.61a47.384 47.384 0 1 0 50.481 51.601z"/></g><g fill="#832EFF" style="mix-blend-mode:plus-lighter"><path d="M140.186 71.807a50 50 0 1 1-71.861 25.266l2.442.938a47.383 47.383 0 1 0 68.101-23.944z" opacity=".071"/><path d="M138.854 69.166a50 50 0 1 1-73.79 18.907l2.352 1.147a47.382 47.382 0 0 0 54.344 66.68 47.39 47.39 0 0 0 34.839-37.317 47.38 47.38 0 0 0-19.255-47.282z" opacity=".143"/><path d="M137.303 66.836a50 50 0 0 1 15.893 51.473 50 50 0 0 1-40.054 36.024A50 50 0 0 1 62.147 79.24l2.242 1.348a47.384 47.384 0 1 0 71.224-11.755z" opacity=".214"/><path d="M135.507 64.797a49.998 49.998 0 1 1-79.162 59.581 50 50 0 0 1 3.21-53.775l2.116 1.538a47.383 47.383 0 0 0 66.823 65.718 47.38 47.38 0 0 0 17.827-47.839 47.4 47.4 0 0 0-12.672-23.381z" opacity=".286"/><path d="M133.44 63.025a49.998 49.998 0 0 1-65.836 73.802A50.002 50.002 0 0 1 57.271 62.19l1.974 1.716a47.384 47.384 0 1 0 72.184.792z" opacity=".357"/><path d="M131.08 61.497a49.99 49.99 0 0 1 2.029 53.833 50.002 50.002 0 0 1-74.046 13.95A50 50 0 0 1 41.364 78.4a50 50 0 0 1 13.91-24.374l1.817 1.882a47.383 47.383 0 1 0 71.84 7.08z" opacity=".429"/><path d="M128.408 60.186a50 50 0 1 1-74.866-14.05l1.646 2.034a47.384 47.384 0 1 0 70.949 13.314z" opacity=".5"/><path d="M125.406 59.064a50 50 0 0 1-7.35 53.367 50 50 0 1 1-66.007-73.888l1.462 2.169a47.383 47.383 0 1 0 69.519 19.447z" opacity=".571"/><path d="M122.058 58.1a50.001 50.001 0 1 1-96.925 20.544 50 50 0 0 1 25.635-47.38l1.268 2.289a47.385 47.385 0 1 0 67.559 25.432z" opacity=".643"/><path d="M118.351 57.267a50 50 0 1 1-68.679-32.948l1.064 2.39a47.384 47.384 0 1 0 65.085 31.224z" opacity=".714"/><path d="M114.277 56.53a50 50 0 1 1-65.546-38.81l.851 2.474A47.384 47.384 0 1 0 111.7 56.972z" opacity=".786"/><path d="M109.828 55.856a50 50 0 0 1-25.16 47.635 50 50 0 1 1-36.755-92.008l.633 2.538a47.384 47.384 0 1 0 58.675 42.052z" opacity=".857"/><path d="M105 55.215a49.998 49.998 0 0 1-56.987 49.294 49.998 49.998 0 0 1-.825-98.895l.409 2.584a47.384 47.384 0 1 0 54.786 47.006z" opacity=".929"/><path d="M99.79 54.572a50.001 50.001 0 0 1-85.53 30.393A50 50 0 0 1 46.522.121l.182 2.61a47.384 47.384 0 1 0 50.481 51.601z"/></g><g fill="#832EFF" style="mix-blend-mode:plus-lighter"><path d="M140.186 71.807a50 50 0 1 1-71.861 25.266l2.442.938a47.383 47.383 0 1 0 68.101-23.944z" opacity=".071"/><path d="M138.854 69.166a50 50 0 1 1-73.79 18.907l2.352 1.147a47.382 47.382 0 0 0 54.344 66.68 47.39 47.39 0 0 0 34.839-37.317 47.38 47.38 0 0 0-19.255-47.282z" opacity=".143"/><path d="M137.303 66.836a50 50 0 0 1 15.893 51.473 50 50 0 0 1-40.054 36.024A50 50 0 0 1 62.147 79.24l2.242 1.348a47.384 47.384 0 1 0 71.224-11.755z" opacity=".214"/><path d="M135.507 64.797a49.998 49.998 0 1 1-79.162 59.581 50 50 0 0 1 3.21-53.775l2.116 1.538a47.383 47.383 0 0 0 66.823 65.718 47.38 47.38 0 0 0 17.827-47.839 47.4 47.4 0 0 0-12.672-23.381z" opacity=".286"/><path d="M133.44 63.025a49.998 49.998 0 0 1-65.836 73.802A50.002 50.002 0 0 1 57.271 62.19l1.974 1.716a47.384 47.384 0 1 0 72.184.792z" opacity=".357"/><path d="M131.08 61.497a49.99 49.99 0 0 1 2.029 53.833 50.002 50.002 0 0 1-74.046 13.95A50 50 0 0 1 41.364 78.4a50 50 0 0 1 13.91-24.374l1.817 1.882a47.383 47.383 0 1 0 71.84 7.08z" opacity=".429"/><path d="M128.408 60.186a50 50 0 1 1-74.866-14.05l1.646 2.034a47.384 47.384 0 1 0 70.949 13.314z" opacity=".5"/><path d="M125.406 59.064a50 50 0 0 1-7.35 53.367 50 50 0 1 1-66.007-73.888l1.462 2.169a47.383 47.383 0 1 0 69.519 19.447z" opacity=".571"/><path d="M122.058 58.1a50.001 50.001 0 1 1-96.925 20.544 50 50 0 0 1 25.635-47.38l1.268 2.289a47.385 47.385 0 1 0 67.559 25.432z" opacity=".643"/><path d="M118.351 57.267a50 50 0 1 1-68.679-32.948l1.064 2.39a47.384 47.384 0 1 0 65.085 31.224z" opacity=".714"/><path d="M114.277 56.53a50 50 0 1 1-65.546-38.81l.851 2.474A47.384 47.384 0 1 0 111.7 56.972z" opacity=".786"/><path d="M109.828 55.856a50 50 0 0 1-25.16 47.635 50 50 0 1 1-36.755-92.008l.633 2.538a47.384 47.384 0 1 0 58.675 42.052z" opacity=".857"/><path d="M105 55.215a49.998 49.998 0 0 1-56.987 49.294 49.998 49.998 0 0 1-.825-98.895l.409 2.584a47.384 47.384 0 1 0 54.786 47.006z" opacity=".929"/><path d="M99.79 54.572a50.001 50.001 0 0 1-85.53 30.393A50 50 0 0 1 46.522.121l.182 2.61a47.384 47.384 0 1 0 50.481 51.601z"/></g></svg>