<svg xmlns="http://www.w3.org/2000/svg" width="239" height="239" fill="none"><g fill="#BB8FFA" style="mix-blend-mode:plus-lighter"><path d="m118.617 52.17-38.69 21.71 34.332 28.1-38.147-22.652-7.168 43.783.543-44.362-41.501 15.683 38.69-21.71-34.332-28.1L70.49 67.275l7.168-43.782-.543 44.362z" opacity=".042"/><path d="M125.286 61.2 84.85 79.456l31.753 30.985-36.027-25.89-10.957 42.991 4.408-44.147-42.71 12.007 40.435-18.255L40 46.162l36.028 25.89 10.957-42.991-4.408 44.146z" opacity=".083"/><path d="M131.597 70.36 89.725 85.022l28.931 33.635-33.634-28.932-14.662 41.873 8.24-43.595-43.594 8.24L76.878 81.58 47.946 47.946 81.58 76.878l14.662-41.873-8.239 43.594z" opacity=".125"/><path d="M137.542 79.619 94.55 90.576l25.891 36.027L89.456 94.85 71.2 135.286l12.007-42.71-44.146 4.408 42.991-10.957-25.89-36.028 30.984 31.753 18.256-40.435-12.007 42.71z" opacity=".167"/><path d="m143.111 88.944-43.783 7.168 22.652 38.147-28.1-34.333-21.71 38.691 15.684-41.501-44.362.543 43.782-7.168-22.652-38.147 28.1 34.333 21.71-38.691-15.683 41.501z" opacity=".208"/><path d="m148.301 98.301-44.241 3.325 19.241 39.977-25-36.652-25 36.652 19.241-39.977-44.24-3.325 44.24-3.325L73.302 55l25 36.651L123.3 55l-19.24 39.976z" opacity=".25"/><path d="m153.111 107.659-44.362-.543 15.683 41.501-21.71-38.691-28.1 34.333 22.652-38.147-43.782-7.168 44.362.543L82.17 57.986l21.711 38.69 28.099-34.332-22.652 38.147z" opacity=".292"/><path d="m157.542 116.984-44.146-4.408 12.006 42.71-18.255-40.436-30.985 31.754 25.89-36.028-42.991-10.957 44.146 4.408L91.2 61.317l18.256 40.435 30.985-31.753-25.891 36.028z" opacity=".333"/><path d="m161.598 126.242-43.594-8.238 8.238 43.594-14.662-41.873-33.634 28.932 28.932-33.634-41.873-14.663 43.594 8.239-8.239-43.594 14.662 41.873 33.635-28.932-28.932 33.634z" opacity=".375"/><path d="m165.286 135.402-42.71-12.006 4.408 44.146-10.957-42.992-36.028 25.891 31.753-30.985L71.317 101.2l42.71 12.007-4.408-44.146 10.957 42.991 36.028-25.89-31.754 30.985z" opacity=".417"/><path d="m168.617 144.432-41.501-15.683.543 44.362-7.168-43.783-38.147 22.652 34.333-28.099-38.691-21.711 41.501 15.684-.544-44.363 7.169 43.783 38.147-22.652-34.333 28.1z" opacity=".458"/><path d="m171.603 153.301-39.977-19.241-3.325 44.241-3.325-44.241L85 153.301l36.651-25-36.651-25 39.976 19.241 3.325-44.24 3.325 44.24 39.977-19.241-36.652 25z" opacity=".5"/><path d="m174.259 161.98-38.147-22.652-7.168 43.783.543-44.362-41.501 15.683 38.691-21.71-34.333-28.1 38.147 22.652 7.168-43.782-.543 44.362 41.501-15.684-38.691 21.711z" opacity=".542"/><path d="m176.604 170.441-36.028-25.891-10.957 42.992 4.408-44.147-42.71 12.007 40.435-18.255-31.753-30.985 36.028 25.89 10.957-42.991-4.408 44.146 42.71-12.007-40.436 18.256z" opacity=".583"/><path d="m178.657 178.657-33.635-28.932-14.662 41.873 8.239-43.594-43.594 8.238 41.873-14.662-28.932-33.634 33.634 28.932 14.662-41.873-8.238 43.594 43.594-8.239-41.873 14.662z" opacity=".625"/><path d="m180.441 186.603-30.985-31.753-18.256 40.436 12.007-42.71-44.146 4.408 42.991-10.957-25.89-36.028 30.985 31.753 18.255-40.435-12.006 42.71 44.146-4.408-42.992 10.957z" opacity=".667"/><path d="m181.98 194.259-28.099-34.333-21.711 38.691 15.684-41.501-44.362.543 43.782-7.168-22.652-38.147 28.1 34.333 21.71-38.691-15.683 41.501 44.362-.543-43.783 7.168z" opacity=".708"/><path d="m183.301 201.603-25-36.652-25 36.652 19.241-39.977-44.241-3.325 44.241-3.325L133.301 115l25 36.651 25-36.651-19.241 39.976 44.241 3.325-44.241 3.325z" opacity=".75"/><path d="m184.432 208.617-21.71-38.691-28.1 34.333 22.652-38.147-43.782-7.168 44.362.543-15.684-41.501 21.711 38.691 28.099-34.333-22.652 38.147 43.783 7.168-44.362-.543z" opacity=".792"/><path d="m185.402 215.286-18.255-40.436-30.985 31.753 25.89-36.027-42.991-10.957 44.146 4.408-12.007-42.71 18.256 40.435 30.985-31.753-25.891 36.028 42.992 10.957-44.146-4.408z" opacity=".833"/><path d="m186.242 221.597-14.662-41.872-33.634 28.931 28.932-33.634-41.873-14.662 43.594 8.239-8.239-43.594 14.662 41.873 33.635-28.932-28.932 33.634 41.873 14.662-43.594-8.239z" opacity=".875"/><path d="m186.984 227.542-10.957-42.992-36.028 25.891 31.753-30.985-40.435-18.256 42.71 12.007-4.408-44.146 10.957 42.991 36.028-25.89-31.754 30.984 40.436 18.256-42.71-12.007z" opacity=".917"/><path d="m187.659 233.111-7.168-43.783-38.147 22.652 34.333-28.099-38.691-21.711 41.501 15.684-.544-44.363 7.169 43.783 38.147-22.652-34.333 28.1 38.691 21.71-41.501-15.683z" opacity=".958"/><path d="m188.301 238.301-3.325-44.241L145 213.301l36.651-25-36.651-25 39.976 19.241 3.325-44.241 3.325 44.241 39.977-19.241-36.652 25 36.652 25-39.977-19.241z"/></g><g fill="#832EFF" style="mix-blend-mode:plus-lighter"><path d="m118.617 52.17-38.69 21.71 34.332 28.1-38.147-22.652-7.168 43.783.543-44.362-41.501 15.683 38.69-21.71-34.332-28.1L70.49 67.275l7.168-43.782-.543 44.362z" opacity=".042"/><path d="M125.286 61.2 84.85 79.456l31.753 30.985-36.027-25.89-10.957 42.991 4.408-44.147-42.71 12.007 40.435-18.255L40 46.162l36.028 25.89 10.957-42.991-4.408 44.146z" opacity=".083"/><path d="M131.597 70.36 89.725 85.022l28.931 33.635-33.634-28.932-14.662 41.873 8.24-43.595-43.594 8.24L76.878 81.58 47.946 47.946 81.58 76.878l14.662-41.873-8.239 43.594z" opacity=".125"/><path d="M137.542 79.619 94.55 90.576l25.891 36.027L89.456 94.85 71.2 135.286l12.007-42.71-44.146 4.408 42.991-10.957-25.89-36.028 30.984 31.753 18.256-40.435-12.007 42.71z" opacity=".167"/><path d="m143.111 88.944-43.783 7.168 22.652 38.147-28.1-34.333-21.71 38.691 15.684-41.501-44.362.543 43.782-7.168-22.652-38.147 28.1 34.333 21.71-38.691-15.683 41.501z" opacity=".208"/><path d="m148.301 98.301-44.241 3.325 19.241 39.977-25-36.652-25 36.652 19.241-39.977-44.24-3.325 44.24-3.325L73.302 55l25 36.651L123.3 55l-19.24 39.976z" opacity=".25"/><path d="m153.111 107.659-44.362-.543 15.683 41.501-21.71-38.691-28.1 34.333 22.652-38.147-43.782-7.168 44.362.543L82.17 57.986l21.711 38.69 28.099-34.332-22.652 38.147z" opacity=".292"/><path d="m157.542 116.984-44.146-4.408 12.006 42.71-18.255-40.436-30.985 31.754 25.89-36.028-42.991-10.957 44.146 4.408L91.2 61.317l18.256 40.435 30.985-31.753-25.891 36.028z" opacity=".333"/><path d="m161.598 126.242-43.594-8.238 8.238 43.594-14.662-41.873-33.634 28.932 28.932-33.634-41.873-14.663 43.594 8.239-8.239-43.594 14.662 41.873 33.635-28.932-28.932 33.634z" opacity=".375"/><path d="m165.286 135.402-42.71-12.006 4.408 44.146-10.957-42.992-36.028 25.891 31.753-30.985L71.317 101.2l42.71 12.007-4.408-44.146 10.957 42.991 36.028-25.89-31.754 30.985z" opacity=".417"/><path d="m168.617 144.432-41.501-15.683.543 44.362-7.168-43.783-38.147 22.652 34.333-28.099-38.691-21.711 41.501 15.684-.544-44.363 7.169 43.783 38.147-22.652-34.333 28.1z" opacity=".458"/><path d="m171.603 153.301-39.977-19.241-3.325 44.241-3.325-44.241L85 153.301l36.651-25-36.651-25 39.976 19.241 3.325-44.24 3.325 44.24 39.977-19.241-36.652 25z" opacity=".5"/><path d="m174.259 161.98-38.147-22.652-7.168 43.783.543-44.362-41.501 15.683 38.691-21.71-34.333-28.1 38.147 22.652 7.168-43.782-.543 44.362 41.501-15.684-38.691 21.711z" opacity=".542"/><path d="m176.604 170.441-36.028-25.891-10.957 42.992 4.408-44.147-42.71 12.007 40.435-18.255-31.753-30.985 36.028 25.89 10.957-42.991-4.408 44.146 42.71-12.007-40.436 18.256z" opacity=".583"/><path d="m178.657 178.657-33.635-28.932-14.662 41.873 8.239-43.594-43.594 8.238 41.873-14.662-28.932-33.634 33.634 28.932 14.662-41.873-8.238 43.594 43.594-8.239-41.873 14.662z" opacity=".625"/><path d="m180.441 186.603-30.985-31.753-18.256 40.436 12.007-42.71-44.146 4.408 42.991-10.957-25.89-36.028 30.985 31.753 18.255-40.435-12.006 42.71 44.146-4.408-42.992 10.957z" opacity=".667"/><path d="m181.98 194.259-28.099-34.333-21.711 38.691 15.684-41.501-44.362.543 43.782-7.168-22.652-38.147 28.1 34.333 21.71-38.691-15.683 41.501 44.362-.543-43.783 7.168z" opacity=".708"/><path d="m183.301 201.603-25-36.652-25 36.652 19.241-39.977-44.241-3.325 44.241-3.325L133.301 115l25 36.651 25-36.651-19.241 39.976 44.241 3.325-44.241 3.325z" opacity=".75"/><path d="m184.432 208.617-21.71-38.691-28.1 34.333 22.652-38.147-43.782-7.168 44.362.543-15.684-41.501 21.711 38.691 28.099-34.333-22.652 38.147 43.783 7.168-44.362-.543z" opacity=".792"/><path d="m185.402 215.286-18.255-40.436-30.985 31.753 25.89-36.027-42.991-10.957 44.146 4.408-12.007-42.71 18.256 40.435 30.985-31.753-25.891 36.028 42.992 10.957-44.146-4.408z" opacity=".833"/><path d="m186.242 221.597-14.662-41.872-33.634 28.931 28.932-33.634-41.873-14.662 43.594 8.239-8.239-43.594 14.662 41.873 33.635-28.932-28.932 33.634 41.873 14.662-43.594-8.239z" opacity=".875"/><path d="m186.984 227.542-10.957-42.992-36.028 25.891 31.753-30.985-40.435-18.256 42.71 12.007-4.408-44.146 10.957 42.991 36.028-25.89-31.754 30.984 40.436 18.256-42.71-12.007z" opacity=".917"/><path d="m187.659 233.111-7.168-43.783-38.147 22.652 34.333-28.099-38.691-21.711 41.501 15.684-.544-44.363 7.169 43.783 38.147-22.652-34.333 28.1 38.691 21.71-41.501-15.683z" opacity=".958"/><path d="m188.301 238.301-3.325-44.241L145 213.301l36.651-25-36.651-25 39.976 19.241 3.325-44.241 3.325 44.241 39.977-19.241-36.652 25 36.652 25-39.977-19.241z"/></g></svg>