<svg xmlns="http://www.w3.org/2000/svg" width="133" height="132" fill="none"><g filter="url(#a)" style="mix-blend-mode:plus-lighter"><path fill="url(#b)" d="m66.5 8 7.773 38.144 30.473-24.224-18.564 34.217 38.914 1.03-36.214 14.28 29.147 25.803-36.92-12.34 5.741 38.502L66.5 90.227l-20.35 33.185 5.742-38.502-36.92 12.34 29.146-25.803-36.214-14.28 38.914-1.03L28.254 21.92l30.473 24.224z"/></g><g filter="url(#c)" style="mix-blend-mode:plus-lighter"><path fill="url(#d)" d="m66.5 8 7.773 38.144 30.473-24.224-18.564 34.217 38.914 1.03-36.214 14.28 29.147 25.803-36.92-12.34 5.741 38.502L66.5 90.227l-20.35 33.185 5.742-38.502-36.92 12.34 29.146-25.803-36.214-14.28 38.914-1.03L28.254 21.92l30.473 24.224z"/></g><g filter="url(#e)" style="mix-blend-mode:plus-lighter"><path fill="url(#f)" d="m66.5 8 7.773 38.144 30.473-24.224-18.564 34.217 38.914 1.03-36.214 14.28 29.147 25.803-36.92-12.34 5.741 38.502L66.5 90.227l-20.35 33.185 5.742-38.502-36.92 12.34 29.146-25.803-36.214-14.28 38.914-1.03L28.254 21.92l30.473 24.224z"/></g><defs><radialGradient id="b" cx="0" cy="0" r="1" gradientTransform="rotate(90 -.5 67)scale(59.5)" gradientUnits="userSpaceOnUse"><stop stop-color="#732EFF"/><stop offset=".37" stop-color="#451C99"/></radialGradient><radialGradient id="d" cx="0" cy="0" r="1" gradientTransform="rotate(90 -.5 67)scale(59.5)" gradientUnits="userSpaceOnUse"><stop stop-color="#732EFF"/><stop offset=".37" stop-color="#451C99"/></radialGradient><radialGradient id="f" cx="0" cy="0" r="1" gradientTransform="rotate(90 -.5 67)scale(59.5)" gradientUnits="userSpaceOnUse"><stop stop-color="#732EFF"/><stop offset=".37" stop-color="#451C99"/></radialGradient><filter id="a" width="132.9" height="131.12" x=".05" y=".146" color-interpolation-filters="sRGB" filterUnits="userSpaceOnUse"><feFlood flood-opacity="0" result="BackgroundImageFix"/><feBlend in="SourceGraphic" in2="BackgroundImageFix" result="shape"/><feGaussianBlur result="effect1_foregroundBlur_110_365" stdDeviation="3.927"/></filter><filter id="c" width="132.9" height="131.12" x=".05" y=".146" color-interpolation-filters="sRGB" filterUnits="userSpaceOnUse"><feFlood flood-opacity="0" result="BackgroundImageFix"/><feBlend in="SourceGraphic" in2="BackgroundImageFix" result="shape"/><feGaussianBlur result="effect1_foregroundBlur_110_365" stdDeviation="3.927"/></filter><filter id="e" width="132.9" height="131.12" x=".05" y=".146" color-interpolation-filters="sRGB" filterUnits="userSpaceOnUse"><feFlood flood-opacity="0" result="BackgroundImageFix"/><feBlend in="SourceGraphic" in2="BackgroundImageFix" result="shape"/><feGaussianBlur result="effect1_foregroundBlur_110_365" stdDeviation="3.927"/></filter></defs></svg>