<svg xmlns="http://www.w3.org/2000/svg" width="1524" height="1578" fill="none"><g fill="#832EFF" filter="url(#a)" style="mix-blend-mode:plus-lighter"><path d="m754.5 157 53.843 415.292a2 2 0 0 0 1.302 1.623l555.265 201.376c1.85.671 1.72 3.329-.19 3.818L810.515 921.155a2 2 0 0 0-1.492 1.726l-52.889 496.279c-.248 2.33-3.611 2.41-3.965.09l-75.922-496.468a2 2 0 0 0-1.446-1.626L158.813 779.1c-1.856-.511-1.989-3.092-.196-3.791l516.35-201.406a2 2 0 0 0 1.238-1.493z"/><path d="m754.5 157 53.963 415.624c.024.558.28 1.082.707 1.443l236.25 199.906c1.42 1.204.57 3.527-1.3 3.527H447.829c-1.847 0-2.707-2.291-1.316-3.506L675.37 574.05c.403-.352.648-.851.681-1.385z"/><path d="m754.5 157 53.963 415.624c.024.558.28 1.082.707 1.443l236.25 199.906c1.42 1.204.57 3.527-1.3 3.527H447.829c-1.847 0-2.707-2.291-1.316-3.506L675.37 574.05c.403-.352.648-.851.681-1.385z"/></g><g fill="#832EFF" filter="url(#b)" style="mix-blend-mode:plus-lighter"><path d="m754.5 157 53.843 415.292a2 2 0 0 0 1.302 1.623l555.265 201.376c1.85.671 1.72 3.329-.19 3.818L810.515 921.155a2 2 0 0 0-1.492 1.726l-52.889 496.279c-.248 2.33-3.611 2.41-3.965.09l-75.922-496.468a2 2 0 0 0-1.446-1.626L158.813 779.1c-1.856-.511-1.989-3.092-.196-3.791l516.35-201.406a2 2 0 0 0 1.238-1.493z"/><path d="m754.5 157 53.963 415.624c.024.558.28 1.082.707 1.443l236.25 199.906c1.42 1.204.57 3.527-1.3 3.527H447.829c-1.847 0-2.707-2.291-1.316-3.506L675.37 574.05c.403-.352.648-.851.681-1.385z"/><path d="m754.5 157 53.963 415.624c.024.558.28 1.082.707 1.443l236.25 199.906c1.42 1.204.57 3.527-1.3 3.527H447.829c-1.847 0-2.707-2.291-1.316-3.506L675.37 574.05c.403-.352.648-.851.681-1.385z"/></g><g filter="url(#c)" style="mix-blend-mode:plus-lighter"><path fill="url(#d)" d="m754.5 157 53.843 415.292a2 2 0 0 0 1.302 1.623l555.265 201.376c1.85.671 1.72 3.329-.19 3.818L810.515 921.155a2 2 0 0 0-1.492 1.726l-52.889 496.279c-.248 2.33-3.611 2.41-3.965.09l-75.922-496.468a2 2 0 0 0-1.446-1.626L158.813 779.1c-1.856-.511-1.989-3.092-.196-3.791l516.35-201.406a2 2 0 0 0 1.238-1.493z"/><path fill="url(#e)" d="m754.5 157 53.963 415.624c.024.558.28 1.081.707 1.443l236.25 199.906c1.42 1.204.57 3.527-1.3 3.527H447.829c-1.847 0-2.707-2.291-1.316-3.506L675.37 574.05c.403-.352.648-.851.681-1.385z"/><path fill="url(#f)" d="m754.5 157 53.963 415.624c.024.558.28 1.081.707 1.443l236.25 199.906c1.42 1.204.57 3.527-1.3 3.527H447.829c-1.847 0-2.707-2.291-1.316-3.506L675.37 574.05c.403-.352.648-.851.681-1.385z"/></g><defs><radialGradient id="d" cx="0" cy="0" r="1" gradientTransform="matrix(0 638.75 -609 0 762 795.75)" gradientUnits="userSpaceOnUse"><stop stop-color="#DACFEA"/><stop offset="1" stop-color="#4F1C99"/></radialGradient><radialGradient id="e" cx="0" cy="0" r="1" gradientTransform="matrix(0 638.75 -609 0 762 795.75)" gradientUnits="userSpaceOnUse"><stop stop-color="#DACFEA"/><stop offset="1" stop-color="#4F1C99"/></radialGradient><radialGradient id="f" cx="0" cy="0" r="1" gradientTransform="matrix(0 638.75 -609 0 762 795.75)" gradientUnits="userSpaceOnUse"><stop stop-color="#DACFEA"/><stop offset="1" stop-color="#4F1C99"/></radialGradient><filter id="a" width="1522.48" height="1577.55" x=".544" y=".2" color-interpolation-filters="sRGB" filterUnits="userSpaceOnUse"><feFlood flood-opacity="0" result="BackgroundImageFix"/><feBlend in="SourceGraphic" in2="BackgroundImageFix" result="shape"/><feGaussianBlur result="effect1_foregroundBlur_103_39" stdDeviation="78.4"/></filter><filter id="b" width="1522.48" height="1577.55" x=".544" y=".2" color-interpolation-filters="sRGB" filterUnits="userSpaceOnUse"><feFlood flood-opacity="0" result="BackgroundImageFix"/><feBlend in="SourceGraphic" in2="BackgroundImageFix" result="shape"/><feGaussianBlur result="effect1_foregroundBlur_103_39" stdDeviation="78.4"/></filter><filter id="c" width="1522.48" height="1577.55" x=".544" y=".2" color-interpolation-filters="sRGB" filterUnits="userSpaceOnUse"><feFlood flood-opacity="0" result="BackgroundImageFix"/><feBlend in="SourceGraphic" in2="BackgroundImageFix" result="shape"/><feGaussianBlur result="effect1_foregroundBlur_103_39" stdDeviation="78.4"/></filter></defs></svg>