<svg xmlns="http://www.w3.org/2000/svg" width="1440" height="916" fill="none"><g fill="#832EFF" filter="url(#a)" style="mix-blend-mode:plus-lighter"><path d="M1432.5 466.916 143.876 520.88a2 2 0 0 0-1.443.706L-57.473 757.832c-1.204 1.422-3.527.571-3.527-1.292V160.245c0-1.847 2.29-2.707 3.506-1.316L142.45 387.787c.352.402.851.648 1.385.68z"/><path d="M1432.5 466.916 143.876 520.88a2 2 0 0 0-1.443.706L-57.473 757.832c-1.204 1.422-3.527.571-3.527-1.292V160.245c0-1.847 2.29-2.707 3.506-1.316L142.45 387.787c.352.402.851.648 1.385.68z"/><path d="M1432.5 466.916 143.876 520.88a2 2 0 0 0-1.443.706L-57.473 757.832c-1.204 1.422-3.527.571-3.527-1.292V160.245c0-1.847 2.29-2.707 3.506-1.316L142.45 387.787c.352.402.851.648 1.385.68z"/></g><g fill="#832EFF" filter="url(#b)" style="mix-blend-mode:plus-lighter"><path d="M1432.5 466.916 143.876 520.88a2 2 0 0 0-1.443.706L-57.473 757.832c-1.204 1.422-3.527.571-3.527-1.292V160.245c0-1.847 2.29-2.707 3.506-1.316L142.45 387.787c.352.402.851.648 1.385.68z"/><path d="M1432.5 466.916 143.876 520.88a2 2 0 0 0-1.443.706L-57.473 757.832c-1.204 1.422-3.527.571-3.527-1.292V160.245c0-1.847 2.29-2.707 3.506-1.316L142.45 387.787c.352.402.851.648 1.385.68z"/><path d="M1432.5 466.916 143.876 520.88a2 2 0 0 0-1.443.706L-57.473 757.832c-1.204 1.422-3.527.571-3.527-1.292V160.245c0-1.847 2.29-2.707 3.506-1.316L142.45 387.787c.352.402.851.648 1.385.68z"/></g><g fill="#832EFF" filter="url(#c)" style="mix-blend-mode:plus-lighter"><path d="M1432.5 466.916 143.876 520.88a2 2 0 0 0-1.443.706L-57.473 757.832c-1.204 1.422-3.527.571-3.527-1.292V160.245c0-1.847 2.29-2.707 3.506-1.316L142.45 387.787c.352.402.851.648 1.385.68z"/><path d="M1432.5 466.916 143.876 520.88a2 2 0 0 0-1.443.706L-57.473 757.832c-1.204 1.422-3.527.571-3.527-1.292V160.245c0-1.847 2.29-2.707 3.506-1.316L142.45 387.787c.352.402.851.648 1.385.68z"/><path d="M1432.5 466.916 143.876 520.88a2 2 0 0 0-1.443.706L-57.473 757.832c-1.204 1.422-3.527.571-3.527-1.292V160.245c0-1.847 2.29-2.707 3.506-1.316L142.45 387.787c.352.402.851.648 1.385.68z"/></g><g fill="#832EFF" filter="url(#d)" style="mix-blend-mode:plus-lighter"><path d="M1392.5 466 103.876 519.963a2 2 0 0 0-1.443.707L-97.473 756.916c-1.204 1.422-3.527.571-3.527-1.292V159.329c0-1.847 2.29-2.707 3.506-1.316L102.45 386.87c.352.403.851.648 1.385.681z"/><path d="M1392.5 466 103.876 519.963a2 2 0 0 0-1.443.707L-97.473 756.916c-1.204 1.422-3.527.571-3.527-1.292V159.329c0-1.847 2.29-2.707 3.506-1.316L102.45 386.87c.352.403.851.648 1.385.681z"/><path d="M1392.5 466 103.876 519.963a2 2 0 0 0-1.443.707L-97.473 756.916c-1.204 1.422-3.527.571-3.527-1.292V159.329c0-1.847 2.29-2.707 3.506-1.316L102.45 386.87c.352.403.851.648 1.385.681z"/></g><g fill="#832EFF" filter="url(#e)" style="mix-blend-mode:plus-lighter"><path d="M1392.5 466 103.876 519.963a2 2 0 0 0-1.443.707L-97.473 756.916c-1.204 1.422-3.527.571-3.527-1.292V159.329c0-1.847 2.29-2.707 3.506-1.316L102.45 386.87c.352.403.851.648 1.385.681z"/><path d="M1392.5 466 103.876 519.963a2 2 0 0 0-1.443.707L-97.473 756.916c-1.204 1.422-3.527.571-3.527-1.292V159.329c0-1.847 2.29-2.707 3.506-1.316L102.45 386.87c.352.403.851.648 1.385.681z"/><path d="M1392.5 466 103.876 519.963a2 2 0 0 0-1.443.707L-97.473 756.916c-1.204 1.422-3.527.571-3.527-1.292V159.329c0-1.847 2.29-2.707 3.506-1.316L102.45 386.87c.352.403.851.648 1.385.681z"/></g><defs><filter id="a" width="1807.1" height="913.903" x="-217.8" y="1.441" color-interpolation-filters="sRGB" filterUnits="userSpaceOnUse"><feFlood flood-opacity="0" result="BackgroundImageFix"/><feBlend in="SourceGraphic" in2="BackgroundImageFix" result="shape"/><feGaussianBlur result="effect1_foregroundBlur_86_80" stdDeviation="78.4"/></filter><filter id="b" width="1807.1" height="913.903" x="-217.8" y="1.441" color-interpolation-filters="sRGB" filterUnits="userSpaceOnUse"><feFlood flood-opacity="0" result="BackgroundImageFix"/><feBlend in="SourceGraphic" in2="BackgroundImageFix" result="shape"/><feGaussianBlur result="effect1_foregroundBlur_86_80" stdDeviation="78.4"/></filter><filter id="c" width="1807.1" height="913.903" x="-217.8" y="1.441" color-interpolation-filters="sRGB" filterUnits="userSpaceOnUse"><feFlood flood-opacity="0" result="BackgroundImageFix"/><feBlend in="SourceGraphic" in2="BackgroundImageFix" result="shape"/><feGaussianBlur result="effect1_foregroundBlur_86_80" stdDeviation="78.4"/></filter><filter id="d" width="1807.1" height="913.903" x="-257.8" y=".525" color-interpolation-filters="sRGB" filterUnits="userSpaceOnUse"><feFlood flood-opacity="0" result="BackgroundImageFix"/><feBlend in="SourceGraphic" in2="BackgroundImageFix" result="shape"/><feGaussianBlur result="effect1_foregroundBlur_86_80" stdDeviation="78.4"/></filter><filter id="e" width="1807.1" height="913.903" x="-257.8" y=".525" color-interpolation-filters="sRGB" filterUnits="userSpaceOnUse"><feFlood flood-opacity="0" result="BackgroundImageFix"/><feBlend in="SourceGraphic" in2="BackgroundImageFix" result="shape"/><feGaussianBlur result="effect1_foregroundBlur_86_80" stdDeviation="78.4"/></filter></defs></svg>