<svg xmlns="http://www.w3.org/2000/svg" width="675" height="608" fill="none"><g filter="url(#a)" style="mix-blend-mode:plus-lighter"><path fill="#832EFF" fill-rule="evenodd" d="M375.298 61.456c47.789 5.15 92.92 30.828 116.007 72.986 19.677 35.933-6.459 75.624-12.431 116.154-7.228 49.06 16.843 112.819-25.184 139.143-42.802 26.811-94.402-13.161-139.434-36.03-43.209-21.943-89.307-43.135-106.026-88.622-19.386-52.745-20.831-116.107 14.812-159.552 35.259-42.975 96.987-50.035 152.256-44.08" clip-rule="evenodd"/></g><g filter="url(#b)" style="mix-blend-mode:plus-lighter"><path fill="#832EFF" fill-rule="evenodd" d="M492.42 89.76c47.79 5.15 92.921 30.829 116.008 72.987 19.677 35.932-6.46 75.624-12.431 116.153-7.229 49.061 16.842 112.819-25.184 139.144-42.802 26.81-94.403-13.161-139.434-36.03-43.209-21.943-89.308-43.136-106.026-88.622-19.386-52.746-20.832-116.107 14.812-159.552 35.259-42.975 96.987-50.035 152.255-44.08" clip-rule="evenodd"/></g><g filter="url(#c)" style="mix-blend-mode:plus-lighter"><path fill="#832EFF" fill-rule="evenodd" d="M375.298 210.788c47.789 5.149 92.92 30.828 116.007 72.986 19.677 35.932-6.459 75.624-12.431 116.153-7.228 49.061 16.843 112.819-25.184 139.144-42.802 26.81-94.402-13.161-139.434-36.03-43.209-21.943-89.307-43.136-106.026-88.622-19.386-52.746-20.831-116.107 14.812-159.552 35.259-42.975 96.987-50.035 152.256-44.079" clip-rule="evenodd"/></g><g filter="url(#d)" style="mix-blend-mode:plus-lighter"><path fill="#832EFF" fill-rule="evenodd" d="M240.606 158.082c47.789 5.15 92.921 30.828 116.008 72.987 19.677 35.932-6.46 75.623-12.431 116.153-7.229 49.061 16.842 112.819-25.184 139.144-42.802 26.81-94.403-13.162-139.434-36.03-43.21-21.943-89.308-43.136-106.026-88.623-19.386-52.745-20.832-116.107 14.812-159.551 35.259-42.976 96.987-50.035 152.255-44.08" clip-rule="evenodd"/></g><g filter="url(#e)" style="mix-blend-mode:plus-lighter"><path fill="#832EFF" fill-rule="evenodd" d="M358.705 120.993c47.789 5.15 92.921 30.828 116.007 72.987 19.678 35.932-6.459 75.623-12.431 116.153-7.228 49.061 16.843 112.819-25.183 139.144-42.802 26.81-94.403-13.162-139.435-36.03-43.209-21.943-89.307-43.136-106.025-88.622-19.386-52.746-20.832-116.108 14.812-159.552 35.258-42.976 96.987-50.035 152.255-44.08" clip-rule="evenodd"/></g><defs><filter id="a" width="422.127" height="457.333" x="135.544" y=".479" color-interpolation-filters="sRGB" filterUnits="userSpaceOnUse"><feFlood flood-opacity="0" result="BackgroundImageFix"/><feBlend in="SourceGraphic" in2="BackgroundImageFix" result="shape"/><feGaussianBlur result="effect1_foregroundBlur_117_510" stdDeviation="29.573"/></filter><filter id="b" width="422.127" height="457.333" x="252.667" y="28.784" color-interpolation-filters="sRGB" filterUnits="userSpaceOnUse"><feFlood flood-opacity="0" result="BackgroundImageFix"/><feBlend in="SourceGraphic" in2="BackgroundImageFix" result="shape"/><feGaussianBlur result="effect1_foregroundBlur_117_510" stdDeviation="29.573"/></filter><filter id="c" width="422.127" height="457.333" x="135.544" y="149.811" color-interpolation-filters="sRGB" filterUnits="userSpaceOnUse"><feFlood flood-opacity="0" result="BackgroundImageFix"/><feBlend in="SourceGraphic" in2="BackgroundImageFix" result="shape"/><feGaussianBlur result="effect1_foregroundBlur_117_510" stdDeviation="29.573"/></filter><filter id="d" width="422.127" height="457.333" x=".853" y="97.106" color-interpolation-filters="sRGB" filterUnits="userSpaceOnUse"><feFlood flood-opacity="0" result="BackgroundImageFix"/><feBlend in="SourceGraphic" in2="BackgroundImageFix" result="shape"/><feGaussianBlur result="effect1_foregroundBlur_117_510" stdDeviation="29.573"/></filter><filter id="e" width="422.127" height="457.333" x="118.952" y="60.017" color-interpolation-filters="sRGB" filterUnits="userSpaceOnUse"><feFlood flood-opacity="0" result="BackgroundImageFix"/><feBlend in="SourceGraphic" in2="BackgroundImageFix" result="shape"/><feGaussianBlur result="effect1_foregroundBlur_117_510" stdDeviation="29.573"/></filter></defs></svg>