<!DOCTYPE svg PUBLIC "-//W3C//DTD SVG 1.1//EN" "http://www.w3.org/Graphics/SVG/1.1/DTD/svg11.dtd">
<!-- Uploaded to: SVG Repo, www.svgrepo.com, Transformed by: SVG Repo Mixer Tools -->
<svg fill="#cccccc" version="1.1" id="Layer_1" xmlns="http://www.w3.org/2000/svg" xmlns:xlink="http://www.w3.org/1999/xlink" viewBox="0 0 512 512" xml:space="preserve" width="800px" height="800px" stroke="#cccccc">
<g id="SVGRepo_bgCarrier" stroke-width="0"/>
<g id="SVGRepo_tracerCarrier" stroke-linecap="round" stroke-linejoin="round"/>
<g id="SVGRepo_iconCarrier"> <g> <g> <path d="M0,62.672V212h512V62.672H0z M496,196H16V78.672h480V196z"/> </g> </g> <g> <g> <rect y="284" width="512" height="16"/> </g> </g> <g> <g> <rect y="358.72" width="512" height="16"/> </g> </g> <g> <g> <rect y="433.328" width="512" height="16"/> </g> </g> <g> <g> <path d="M115.344,95.36c-23.136,0-41.952,18.832-41.952,41.968s18.816,41.968,41.952,41.968s41.968-18.816,41.968-41.968 C157.312,114.176,138.48,95.36,115.344,95.36z M115.344,163.296c-14.32,0-25.952-11.648-25.952-25.968 s11.648-25.968,25.952-25.968s25.968,11.648,25.968,25.968S129.664,163.296,115.344,163.296z"/> </g> </g> <g> <g> <path d="M256,95.36c-23.136,0-41.968,18.832-41.968,41.968s18.832,41.968,41.968,41.968s41.968-18.816,41.968-41.968 C297.968,114.176,279.136,95.36,256,95.36z M256,163.296c-14.32,0-25.968-11.648-25.968-25.968S241.696,111.36,256,111.36 s25.968,11.648,25.968,25.968S270.32,163.296,256,163.296z"/> </g> </g> <g> <g> <path d="M396.656,95.36c-23.136,0-41.968,18.832-41.968,41.968s18.832,41.968,41.968,41.968s41.952-18.816,41.952-41.968 C438.608,114.176,419.792,95.36,396.656,95.36z M396.656,163.296c-14.32,0-25.968-11.648-25.968-25.968 s11.664-25.968,25.968-25.968c14.304,0,25.952,11.648,25.952,25.968S410.976,163.296,396.656,163.296z"/> </g> </g> </g>
</svg>